<?xml version="1.0" encoding="UTF-8"?>
<svg xmlns="http://www.w3.org/2000/svg" xmlns:xlink="http://www.w3.org/1999/xlink" width="384pt" height="384pt" viewBox="0 0 512 512" version="1.1">

<path style="fill:#010101; stroke:none;" d="M20 165L456 165L456 267C451.181 267.001 446.434 266.785 442 269C438.78 270.608 435.707 274.489 432 274.763C429.906 274.918 427.852 273.654 426 272.86L418.148 269.606C414.066 267.127 414.85 261.03 413.12 257C409.543 248.672 401.978 243.274 393 242.184C389.386 241.746 385.634 242 382 242C371.544 242 361.67 242.507 355.108 252.039C353.268 254.713 351.912 257.804 351.328 261C350.715 264.352 351.156 267.46 347.852 269.443L342 271.873C339.265 273.047 336.119 275.354 333 274.622C330.406 274.013 328.28 271.809 326 270.532C321.345 267.927 315.289 266.397 310 267.519C302.823 269.042 298.003 274.005 293 279C285.286 286.702 277.901 293.252 279.174 305C279.558 308.549 280.682 311.92 282.481 315C283.929 317.48 286.459 319.951 286.445 323C286.434 325.442 284.799 327.822 283.873 330C282.488 333.255 281.515 336.51 281 340C277.391 340 273.505 339.625 270 340.638C267.859 341.257 265.808 342.339 264.004 343.638C251.099 352.928 254 369.115 254 383L213 383C206.783 383 199.024 381.764 193.004 383.434C183.731 386.006 184.042 399.719 193.015 402.486C195.538 403.264 198.395 402.999 201 403L214 403L257 403L272 403C274.409 403.005 277.463 402.626 279.582 404.028C282.848 406.189 284.356 412.516 285.746 416C286.398 417.632 287.057 419.215 286.596 421C285.74 424.321 282.526 426.944 281 430C278.081 435.845 278.425 443.131 281.055 449C283.322 454.06 287.143 458.11 291.004 461.999C298.745 469.796 306.397 476.413 318 474.699C321.614 474.165 324.914 472.839 327.996 470.9C329.945 469.674 331.98 467.575 334.424 467.543C336.614 467.515 339.042 469.012 341.001 469.85C344.327 471.272 347.417 472.463 351 473C351.096 484.649 355.842 495.868 368 499.362C373.257 500.873 379.578 500 385 500C393.225 500 401.561 499.896 407.895 493.812C413.944 488 414.999 480.928 415 473C418.812 472.344 422.406 470.985 426 469.549C428.16 468.685 430.577 467.167 433 467.661C436.003 468.274 438.391 471.159 441 472.633C445.498 475.173 450.963 475.522 456 474.674C463.151 473.471 468.04 468.935 473 463.999C481.486 455.554 488.518 447.776 486.812 435C486.411 431.999 485.183 429.456 483.451 427C481.932 424.848 479.624 422.823 479.568 420C479.527 417.93 480.798 415.851 481.573 414C483.09 410.38 484.418 406.886 485 403C488.315 403 491.765 403.244 495 402.387C497.091 401.833 499.154 400.911 500.999 399.786C512.064 393.045 512 381.479 512 370C512 365.478 512.624 360.391 511.362 356C509.355 349.017 503.907 343.256 497 341.058C493.976 340.095 489.98 340.67 487.278 338.972C483.795 336.784 482.659 330.586 481.144 327.004C480.524 325.541 479.557 323.922 479.554 322.285C479.549 319.294 482.723 316.493 484.095 313.999C486.363 309.876 487.085 305.661 486.985 301C486.876 295.977 485.179 292.041 482.237 288C479.624 284.411 476.463 281.651 476.059 277C475.487 270.428 476 263.597 476 257L476 217L476 98L476 74C476 69.3668 476.309 64.6037 475.711 60C474.018 46.9782 468.417 34.2834 458.985 25.0394C455.986 22.0999 452.68 19.3947 449 17.3488C437.593 11.0071 424.556 12 412 12L350 12L113 12L66 12C57.8294 12 49.096 11.133 41 12.3001C29.7092 13.9278 18.7359 21.0152 11.8997 30.0008C6.08136 37.6483 1.67914 47.4302 0.300154 57C-0.820562 64.7775 0 73.1516 0 81L0 121L0 279L0 330C0 339.544 -0.883394 349.572 0.757716 359C4.10138 378.21 17.3067 396.959 37 401.761C42.9477 403.211 48.9271 403 55 403L78 403C87.2378 403 96.7969 403.709 106 402.906C110.387 402.523 114.32 400.508 115.566 395.995C115.91 394.753 116.044 393.285 115.926 392C114.905 380.869 102.032 383 94 383L64 383C57.5638 383 50.3035 383.918 44 382.471C35.1481 380.439 27.638 373.157 24.0432 365C19.6693 355.075 20 345.607 20 335L20 300L20 165z"/>
<path style="fill:#8ba9bd; stroke:none;" d="M20 145L455 145L455 76C455 70.1251 455.644 63.8087 454.674 58C453.465 50.7548 449.442 43.2928 443.91 38.4684C435.052 30.7445 423.924 32 413 32L352 32L119 32L62 32C51.7523 32 41.514 30.5182 33.0039 37.3796C26.171 42.8887 21.5508 51.325 20.3002 60C19.455 65.8625 20 72.0879 20 78L20 145z"/>
<path style="fill:#010101; stroke:none;" d="M88 55.4645C82.9008 56.3835 78.2697 58.4493 74.0039 61.3596C50.3075 77.5258 58.3048 115.964 86 122.319C89.8828 123.211 94.0834 123.229 98 122.536C105.395 121.229 112.548 118.329 117.896 112.907C130.847 99.7748 130.153 76.795 116.907 64.1852C112.486 59.9769 106.822 57.682 101 56.1559C96.7267 55.0356 92.3697 54.6769 88 55.4645M175 55.4676C170.737 56.2718 166.668 58.1905 163 60.4676C153.578 66.3175 146.823 77.7458 147.054 89C147.465 109.023 165.893 126.09 186 122.536C192.614 121.367 198.751 118.863 203.91 114.482C206.96 111.892 209.356 108.546 211.179 105C214.95 97.6664 216.5 88.062 214.211 80C209.593 63.7289 191.74 52.3096 175 55.4676M294 55.4676C289.858 56.2487 285.592 58.0178 282 60.213C259.798 73.7816 261.676 106.755 284 119.095C294.258 124.765 306.712 123 318 123L368 123C377.901 123 388.332 124.008 398 121.522C403.948 119.992 409.471 117.25 413.815 112.826C429.391 96.9631 424.696 68.9833 405 58.9954C394.046 53.4403 380.86 55 369 55L320 55C311.585 55 302.289 53.9044 294 55.4676z"/>
<path style="fill:#cdf5fd; stroke:none;" d="M90 75.6674C88.1965 76.1888 86.5254 77.1789 85.1049 78.3943C74.7923 87.2182 83.0639 106.65 97 102.346C104.102 100.153 108.528 92.2041 106.566 85C104.784 78.4561 96.5751 73.7664 90 75.6674z"/>
<path style="fill:#d375a9; stroke:none;" d="M178 75.6566C164.851 79.6024 164.689 100.299 179 102.517C181.262 102.868 183.852 102.391 185.999 101.656C192.471 99.4415 196.342 91.5952 194.343 85.0008C192.424 78.6681 184.537 73.695 178 75.6566z"/>
<path style="fill:#cdf5fd; stroke:none;" d="M297 75.5579C283.798 79.0269 282.573 98.1165 296.001 102.347C298.866 103.25 302.038 102.999 305 103L319 103L368 103L383 103C387.016 102.994 391.257 103.055 394.996 101.347C401.623 98.3199 404.934 89.6006 401.543 83.0154C399.493 79.033 395.316 76.3308 391 75.3904C384.726 74.0237 377.4 75 371 75L331 75L309 75C305.09 75 300.818 74.5547 297 75.5579z"/>
<path style="fill:#8b878b; stroke:none;" d="M20 165L20 166L455 166L455 267L456 267L456 165L20 165z"/>
<path style="fill:#ffffff; stroke:none;" d="M20 166L20 304L20 337C20 347.956 19.7284 357.984 24.9853 368C28.7639 375.199 35.8527 381.243 44 382.671C49.4711 383.631 55.4612 383 61 383L90 383C97.9972 383 114.71 380.209 115.808 392C116.266 396.922 112.538 401.119 107.999 402.427C104.236 403.513 99.8727 403 96 403L76 403L55 403C48.9023 403 42.9406 403.133 37 401.51C21.4013 397.247 9.21484 383.928 4 369C2.59031 364.965 1.22044 361.295 1 357L0 357L0 512L512 512L512 384L511 384C509.629 392.786 502.636 400.098 494 402.387C491.073 403.163 487.999 402.998 485 403C484.096 406.814 482.702 410.405 481.139 414C480.33 415.861 479.025 417.917 478.955 420C478.859 422.875 481.074 424.882 482.68 427C484.762 429.746 486.354 432.535 486.812 436C488.367 447.78 480.671 455.341 473 463C467.733 468.259 462.649 473.39 455 474.674C450.058 475.504 445.251 474.716 441 472.031C438.467 470.431 436.089 467.449 433 466.993C430.565 466.634 428.146 468.222 426 469.128C422.423 470.638 418.742 471.979 415 473C414.998 475.992 415.19 479.091 414.363 482C413.768 484.09 412.754 486.137 411.647 488C404.906 499.351 393.845 500 382 500C372.872 500 365.094 499.734 358.185 492.815C352.911 487.532 351.15 480.234 351 473C347.139 472.083 343.654 470.523 340 469.001C338.155 468.232 336.063 467.085 334 467.223C331.313 467.403 329.168 469.531 327 470.897C323.92 472.837 320.614 474.171 317 474.699C306.416 476.246 298.959 468.957 292.001 461.999C288.069 458.067 284.02 454.038 281.519 449C278.49 442.899 278.125 436.037 281.533 430C283.196 427.055 286.496 424.39 287.188 421C287.865 417.68 285.238 413.941 284.012 411C283.078 408.762 282.349 405.547 280.301 404.028C278.347 402.579 275.278 403.005 273 403L257 403L214 403C207.828 403 199.947 404.293 194.004 402.486C184.244 399.519 183.912 386.208 194.001 383.434C200.034 381.775 207.773 383 214 383L254 383C254 375.111 252.584 365.658 254.613 358C256.045 352.592 259.665 347.827 264.004 344.39C266.072 342.753 268.454 341.374 271 340.638C274.205 339.712 277.701 340 281 340C281.799 336.55 282.86 333.239 284.312 330C285.287 327.824 286.938 325.449 287.049 323C287.19 319.886 284.656 317.45 283.104 315C280.978 311.644 279.585 307.967 279.174 304C278.033 292.972 286.937 286.052 294 279C298.944 274.064 303.84 268.908 311 267.533C316.022 266.569 321.746 268.516 326 271.129C328.226 272.496 330.351 274.695 333 275.198C336.135 275.794 339.28 273.534 342 272.312L347.852 269.895C351.49 267.961 350.714 264.498 351.529 261C352.278 257.79 353.822 254.675 355.789 252.039C362.497 243.054 371.674 242 382 242C385.631 242 389.405 241.725 393 242.326C401.992 243.827 409.516 249.611 413.12 258C414.595 261.436 414.067 267.382 417.318 269.606C418.975 270.74 421.157 271.259 423 272.015C425.957 273.227 429.668 275.867 433 275.188C436.39 274.496 439.055 271.196 442 269.533C446.134 267.199 450.378 267.013 455 267L455 166L20 166z"/>
<path style="fill:#010101; stroke:none;" d="M159.005 222.746C151.055 225.726 150.397 237.919 148.627 245L138.627 287L135.255 302C134.267 305.945 132.716 309.929 132.34 314C131.691 321.036 137.791 327.418 144.996 325.424C153.107 323.179 154.139 310.963 155.765 304L164.873 265C167.247 255.506 170.332 245.688 171.7 236C172.06 233.45 172.246 230.484 171.258 228.043C169.425 223.518 163.57 221.035 159.005 222.746M92 231.028C87.8235 233.109 84.3208 237.558 81.2855 241L63.591 261C59.601 265.758 55.9878 270.455 57.534 277C58.9682 283.071 63.8368 287.523 67.8341 292C74.545 299.516 80.8947 307.919 88.2855 314.772C91.5564 317.805 96.8261 319.142 100.981 316.972C106.528 314.075 107.156 306.947 104.106 302C99.8438 295.084 93.0607 289.101 87.7153 283C85.737 280.742 82.2883 278.121 81.7431 275C81.0697 271.146 85.656 267.504 87.9252 265L100.27 251C102.596 248.265 105.128 245.666 105.771 242C107.139 234.195 99.6208 227.23 92 231.028M205.005 230.743C199.666 232.793 197.803 238.854 199.742 244C200.885 247.036 203.355 249.57 205.428 252L217.925 266C219.834 268.114 222.996 270.933 223.154 274C223.336 277.557 219.288 280.621 217.166 283L205.718 296C203.334 298.747 200.417 301.376 199.434 305C197.223 313.144 203.725 320.011 211.985 317.486C216.486 316.11 219.825 311.364 222.834 308L241.56 287C245.137 282.722 248.546 277.887 247.772 272C246.746 264.206 238.185 257.587 233.285 252C228.021 245.999 222.964 239.433 216.999 234.109C213.655 231.124 209.526 229.007 205.005 230.743z"/>
<path style="fill:#cdf5fd; stroke:none;" d="M275 360L275.005 375.999C275.042 377.981 274.864 380.594 276.603 381.972C279.135 383.978 284.005 382.857 287 383.044C292.13 383.365 296.197 386.301 298.348 391.001C301.143 397.106 302.27 403.865 305.259 410C307.165 413.911 310.956 418.449 310.667 423C310.141 431.291 295.42 435.706 302.164 444C304.422 446.777 307.24 449.569 310 451.847C311.427 453.025 313.021 454.312 315 454.079C317.826 453.745 320.058 450.831 322 449.039C326.294 445.075 330.191 442.262 336 444.803C341.802 447.341 347.004 450.749 353 452.947C358.35 454.908 364.751 455.733 368.772 460.109C371.979 463.599 371.963 467.538 372.001 472C372.031 475.519 371.855 479.136 376.059 479.852C380.108 480.542 384.897 480.161 388.995 479.981C390.728 479.904 392.788 479.892 393.972 478.397C395.949 475.901 394.923 470.957 395.015 468C395.206 461.94 398.301 457.771 404 455.563C409.979 453.245 416.15 452.026 422 449.216C425.738 447.42 429.772 443.947 434 443.583C439.091 443.144 442.634 447.907 446 450.941C447.639 452.419 449.528 454.295 451.91 454.249C455.548 454.179 459.249 449.105 461.509 446.675C463.04 445.03 465.096 443.191 465.828 440.999C466.779 438.149 464.708 435.976 462.944 434C460.14 430.857 455.943 427.552 455.608 423C455.296 418.761 458.93 414.6 460.73 411C462.652 407.156 464.305 403.109 465.565 399C466.588 395.663 467.27 392.045 469.086 389.015C472.114 383.962 476.522 383.032 482 383.001C485.294 382.982 490.482 383.894 491.682 379.852C492.871 375.848 492.164 370.154 491.981 366.005C491.904 364.272 491.892 362.212 490.397 361.028C488.943 359.877 486.734 360.038 484.999 360.005C481.246 359.932 477.338 360.377 474.015 358.258C466.697 353.589 466.045 342.389 462.688 335C460.708 330.643 457.381 326.593 456.012 322C454.406 316.612 458.652 312.616 461.996 309C463.727 307.129 466.415 304.852 466.079 302C465.704 298.829 462.094 296.095 459.999 294.001C458.429 292.431 456.862 290.61 455 289.377C451.293 286.922 448.802 289.456 446 291.98C442.927 294.748 439.406 298.386 435 298.667C429.383 299.026 422.971 293.551 418 291.312C410.714 288.029 399.569 287.781 395.457 279.96C392.901 275.099 394 268.317 394 263L379 263.001C377.008 263.014 374.281 262.699 372.603 264.028C370.04 266.058 371.074 271.163 370.985 274C370.823 279.129 368.751 283.218 363.996 285.581C358.297 288.413 351.773 289.453 346 292.259C341.64 294.379 336.95 298.331 332 298.731C326.939 299.141 323.445 295.091 320 292.044C318.062 290.33 315.833 288.148 313 288.752C310.201 289.348 307.935 292.094 306.001 294.005L301.337 299C298.816 302.571 300.439 305.068 303.056 308C305.911 311.199 309.946 314.418 310.421 319C311.017 324.757 305.574 330.981 303.312 336C301.568 339.867 300.301 343.96 299.025 348C297.901 351.555 296.987 354.959 293.891 357.347C288.775 361.294 281.053 360 275 360z"/>
<path style="fill:#010101; stroke:none;" d="M371 310.465C363.21 311.869 355.587 315.586 349 319.865C342.46 324.113 336.916 329.623 332.44 336C318.344 356.079 318.236 384.434 331.548 405C340.102 418.215 353.816 427.618 369 431.522C377.454 433.695 386.463 433.405 395 431.83C402.957 430.363 411.307 426.751 418 422.251C424.783 417.69 430.496 411.884 434.91 405C442.526 393.124 446.333 378.068 444.826 364C441.949 337.141 419.376 314.634 393 310.325C389.4 309.737 385.635 310 382 310C378.34 310 374.619 309.812 371 310.465z"/>
<path style="fill:#ffffff; stroke:none;" d="M374 330.518C368.615 331.667 363.424 334.26 359.001 337.49C346.014 346.972 339.321 363.064 342.376 379C346.335 399.653 367.653 416.703 389 412.334C396.721 410.754 404.005 408.087 409.999 402.815C419.154 394.764 425.357 382.396 424.957 370C424.129 344.351 398.98 325.188 374 330.518z"/>
<path style="fill:#010101; stroke:none;" d="M147.043 383.858C135.501 388.796 143.526 406.562 154.985 402.106C160.289 400.042 162.666 393.098 159.972 388.044C157.592 383.578 151.601 381.908 147.043 383.858z"/>
</svg>
