<?xml version="1.0" encoding="UTF-8"?>
<svg xmlns="http://www.w3.org/2000/svg" xmlns:xlink="http://www.w3.org/1999/xlink" width="384pt" height="384pt" viewBox="0 0 512 512" version="1.1">

<path style="fill:#010101; stroke:none;" d="M27 70C14.8282 71.2467 4.71223 82.4802 1.89969 94C0.549853 99.5287 1 105.354 1 111L1 250L1 386L1 407C1 410.933 0.608435 415.124 1.37886 419C3.07288 427.523 8.05211 435.273 15 440.443C27.0287 449.393 42.9357 447 57 447L148 447C142.916 458.798 135.143 469.94 128.603 481C125.448 486.336 121.422 492.586 123.894 498.996C125.395 502.891 128.978 505.681 133 506.606C136.512 507.413 140.421 507 144 507L164 507L289 507L361 507C369.338 507 381.881 509.257 387.142 500.956C391.267 494.446 387.132 487.755 383.85 482C377.29 470.501 369.236 459.151 364 447L457 447C471.757 447 488.232 448.779 499.985 437.895C511.104 427.599 511 414.041 511 400L511 357L511 157L511 115C511 102.068 511.623 90.4769 502.674 80.0146C498.241 74.8315 491.751 70.7293 485 69.3789C479.273 68.2333 472.821 69 467 69L422 69L350 69C338.152 69 325.813 70.0013 314.015 68.9414C307.631 68.3678 306.857 59.9561 300 60.2569C294.154 60.5134 291.469 67.311 286 68.6821C281.391 69.8377 275.729 69 271 69L240 69L226 69C223.481 68.9998 220.559 69.3703 218.108 68.6821C214.898 67.7808 213.032 64.1684 214.213 61C215.476 57.6095 219.091 54.6872 221.424 52C230.481 41.569 241.976 33.0227 250.316 22C251.652 20.2333 253.123 18.2524 253.461 16C254.301 10.4056 248.58 7.40732 244 6.46451C210.744 -0.38092 174.67 17.0882 158.782 47C155.145 53.8462 151.681 61.1964 151 69L114 69C109.834 69 103.054 70.2692 99.3789 67.9722C97.562 66.8368 96.49 64.7628 95.4005 62.9954C92.8002 58.7772 89.3344 54.1673 89.5301 49C89.784 42.2949 93.0029 35.743 87.8519 30.0903C85.0239 26.9869 81.3197 24.6487 78 22.1157L64 11.3495C60.8265 8.91983 57.2701 5.4473 53 5.4267C46.8759 5.39716 40.0428 11.4066 35 14.3966C30.4377 17.1017 23.6073 19.6537 21.6042 25.0146C19.8537 29.6993 22.0963 36.2916 23 41L27 70z"/>
<path style="fill:#8797a3; stroke:none;" d="M166 100L167 100C168.607 79.8022 180.391 60.8665 196 48.3789C200.315 44.9269 205.485 43.3496 210 40.3596C214.424 37.4297 217.967 32.9648 221.424 29.0038C223.729 26.3619 226.263 24.0371 228 21C199.343 21.2372 173.992 42.6482 166.756 70C164.162 79.8081 164.744 90.0612 166 100z"/>
<path style="fill:#97a5af; stroke:none;" d="M38 31L40.7145 51C40.9965 53.3406 40.5944 56.4685 42.0278 58.4869C44.2989 61.6849 49.7691 61.3329 52.9846 63.1396C56.8493 65.3113 59.0103 69.2839 61.1497 73L87.1505 118C93.6307 129.353 99.8026 141.088 107 152C112.26 149.799 116.98 146.672 122 144C121.19 139.511 118.956 135.935 116.719 132L107.424 116L76.8503 63C74.9178 59.631 72.2796 56.0336 72.2816 52C72.2839 47.4961 75.5284 42.5804 72.3958 38.4637C68.9801 33.9749 62.5516 30.2009 58 26.9005C55.9291 25.3988 53.7114 23.6883 51 24.0964C46.5459 24.7669 41.9417 28.9021 38 31M176 167C181.585 163.066 186.165 157.81 191 153.001C193.552 150.462 196.393 146.872 200 145.847C203.402 144.881 206.871 147.231 210 148.251C215.031 149.89 220.718 150.731 226 150.961C245.359 151.801 264.718 144.172 277.91 129.999C282.809 124.736 287.703 118.185 289 111C283.787 114.672 279.517 119.514 275 123.999C272.919 126.066 270.759 128.704 268 129.882C264.179 131.512 258.787 129.073 255 128.127C245.124 125.657 235.091 122.359 225 121C224.737 117.991 224.46 114.111 222.157 111.854C220.527 110.257 218.052 109.992 216 109.236C213.113 108.172 210.722 106.631 209.089 103.956C206.964 100.476 206.242 95.8865 205.14 92L198.86 70C197.738 66.0418 195.521 61.1742 196.473 57C197.936 50.586 205.255 46.8857 208 41C189.244 47.8669 175.02 67.2851 169.729 86C168.615 89.9398 167.291 93.8729 167.104 98C166.935 101.747 167.85 105.488 169.09 109C169.979 111.52 171.693 114.227 171.353 117C170.658 122.687 162.682 125.231 162.817 131C162.883 133.826 165.22 136.658 166.576 139L173.424 151C174.707 153.217 176.418 155.492 177.078 158C177.855 160.954 176.491 164.087 176 167z"/>
<path style="fill:#e7f9ff; stroke:none;" d="M17 387L473 387L473 287C468.831 288.578 463.708 293.519 459.015 292.153C456.044 291.288 454.229 288.536 452.796 285.996L446.742 273C445.578 270.585 443.663 267.797 443.824 265C444.044 261.169 448.121 257.265 451.995 257.563C454.108 257.726 456.157 259.075 458 260C458 254.388 458.424 248.584 457.826 243C455.91 225.098 449.384 207.462 438.622 193C433.056 185.521 426.322 178.655 419 172.884C415.763 170.333 410.216 166.789 410.546 162.001C410.851 157.579 415.913 154.502 420 155.532C422.627 156.195 424.866 158.057 427 159.63C430.911 162.516 434.543 165.587 438 169.004C454.88 185.688 468.777 208.068 472 232L473 232L473 127L473 105C472.991 99.1004 472.48 91.9073 468.2 87.3179C465.363 84.276 460.775 85.0002 457 85L428 85L311 85C310.68 123.625 282.775 157.573 245 165.486C237.075 167.146 228.046 167.756 220 166.711C215.196 166.086 208.766 162.827 204 163.904C201.557 164.455 199.747 166.357 198 168.02C194.452 171.398 190.156 174.959 187.361 179C184.843 182.641 186.644 185.572 188.579 189L194.397 199L210.579 227C214.515 233.866 218.952 240.95 219.826 249C222.257 271.365 206.686 292.197 185 297.402C181.435 298.258 177.641 298.04 174 297.996C168.597 297.932 163.877 296.667 159 294.356C140.156 285.424 132.004 263.963 122 247C117.168 249.253 113.742 253.258 110 257C100.128 266.871 90.1614 280.228 75 280.96C51.4313 282.098 30.5051 256.391 41.1204 234C44.1697 227.568 49.0892 223.019 53.9853 218L67 204C70.8361 200.158 75.5091 196.435 78.6636 192C82.9393 185.988 75.4516 181.976 75.3727 176C75.3362 173.233 77.1093 171.09 79.0586 169.329C82.9691 165.795 88.2559 163.215 93 161C91.1075 154.566 87.0254 148.803 83.7191 143L64 109L55.3966 94C53.9543 91.5687 52.5816 88.4623 50.3904 86.6034C47.6708 84.2962 43.3083 85.0002 40 85C36.7345 84.9998 33.2058 84.6578 30 85.3943C24.5266 86.6518 19.3267 91.6612 17.6528 97C16.5682 100.459 17 104.424 17 108L17 126L17 186L17 387M108 85C110.25 90.2219 113.333 95.0643 116.15 100C122.427 110.995 129.098 121.795 135 133C140.544 130.414 144.786 125.392 148.981 121C150.903 118.988 153.068 116.912 153.382 114C153.808 110.044 151.512 105.761 150.597 102C149.262 96.5097 149.004 90.6255 149 85L108 85M220 85L222 95C229.755 96.0443 237.412 98.4764 245 100.373C248 101.124 251.884 102.8 255 102.096C257.435 101.547 259.264 99.6491 260.996 97.9799C265.072 94.0533 268.811 89.6644 272 85L220 85z"/>
<path style="fill:#d1f1ff; stroke:none;" d="M467 85C468.993 89.289 471.48 93.3104 472.482 98C473.711 103.75 473 110.148 473 116L473 150L472.711 232L473.961 244C474.301 251.764 473.608 259.299 473 267C474.829 266.097 476.875 264.756 479.005 264.849C482.744 265.012 486.873 269.155 486.418 273C485.497 280.784 474.357 281.645 473.148 289.04C472.573 292.561 473 296.441 473 300L473 321L473 387L495 387L495 156L495 110C495 101.115 495.267 93.2517 486.996 87.7029C481.27 83.8612 473.545 85 467 85z"/>
<path style="fill:#8797a3; stroke:none;" d="M293 86C286.956 94.5805 278.287 101.432 271.039 109C267.541 112.653 264.34 117.733 259 118.707C255.373 119.368 251.506 117.988 248 117.207L223 111L225 121C234.735 123.009 244.357 125.716 254 128.127C257.889 129.099 262.958 131.309 267 130.592C271.841 129.733 275.723 124.277 279 121C282.565 117.436 287.15 113.959 289.911 109.715C294.091 103.288 294.846 93.4619 295 86L293 86z"/>
<path style="fill:#010101; stroke:none;" d="M372 137C364.956 136.942 358.086 135.604 351 136.09C326.944 137.737 303.84 146.712 285 161.808C276.465 168.646 267.336 177.418 261.854 187C259.146 191.734 260.095 198.004 266.015 199.562C271.5 201.004 274.858 196.842 277.883 192.999C283.617 185.719 289.685 179.239 297 173.511C309.998 163.332 326.5 155.434 343 153.289C349.861 152.398 357.089 153 364 153C363.603 154.67 363.155 156.292 363.134 158.025C363.075 163.109 366.619 167.393 372 166.566C377.271 165.754 383.212 162.061 388 159.742C391.981 157.813 397.263 155.767 398.442 150.985C399.163 148.061 397.758 145.426 396.289 143L388.025 131.001C386.091 128.233 384.269 125.168 380.96 123.898C376.318 122.117 371.031 124.975 370.371 130.013C370.042 132.524 371.057 134.761 372 137z"/>
<path style="fill:#475557; stroke:none;" d="M94 178C95.3682 182.322 97.8775 186.012 100 190C107.173 187.93 113.615 183.387 120 179.603C132.393 172.259 144.955 164.091 158 158C157.12 153.124 154.562 149.186 152 145C143.338 148.732 135.135 154.212 127 158.989L94 178z"/>
<path style="fill:#010101; stroke:none;" d="M458 260C453.012 256.708 446.136 255.901 443.785 263.005C442.738 266.172 444.413 269.217 445.756 272L452.796 286.985C454.244 289.506 456.018 291.856 459.015 292.523C464.94 293.841 471.476 287.69 476 284.667C479.784 282.138 484.59 279.518 486.253 274.996C488.033 270.158 484.212 264.551 479.005 264.452C476.621 264.407 474.879 265.765 473 267C476.984 235.478 468.136 203.891 448.192 179C441.569 170.733 433.276 162.165 424 156.854C419.513 154.285 412.648 154.265 410.619 160.019C409.141 164.21 412.092 167.939 415.044 170.536C422.154 176.792 429.467 182.628 435.536 190C448.095 205.255 455.727 224.386 457.826 244C458.389 249.259 458 254.715 458 260z"/>
<path style="fill:#374547; stroke:none;" d="M114 201C117.084 208.367 121.575 215.106 125.576 222L142.281 251L151 266C153.281 269.792 155.46 273.492 159.04 276.215C169.966 284.524 186.925 284.161 196.671 273.815C202.001 268.157 204.296 259.627 203.959 252C203.54 242.513 196.418 233.957 191.85 226C181.918 208.696 171.297 191.651 162 174C155.305 176.451 149.127 180.766 143 184.397C133.442 190.061 123.829 195.823 114 201z"/>
<path style="fill:#010101; stroke:none;" d="M294 233C291.718 233.008 289.181 232.781 287.003 233.603C278.681 236.745 280 246.906 280 254C280 258.728 279.511 263.868 282.653 267.811C286.487 272.623 292.943 271.061 295.64 277.019C296.496 278.911 297.781 281.441 297.382 283.576C296.664 287.421 293.777 289.676 294.124 294C294.684 300.969 302.342 306.473 307 310.985C309.067 312.987 311.221 315.255 314 316.243C319.273 318.117 322.246 313.519 327 312.975C330.524 312.572 334.496 315.375 338 316C338.048 318.022 338.021 320.05 338.653 322.001C341.604 331.106 351.318 330 359 330C363.588 330 368.866 330.654 372.895 327.991C377.084 325.221 376.505 321.064 379.012 317.394C380.174 315.693 382.138 314.757 384.005 314.038C389.485 311.928 391.933 315.581 397 316.538C400.337 317.168 403.427 315.588 406 313.606C408.902 311.371 411.422 308.59 413.999 306C417.693 302.288 421.911 298.641 421.912 293C421.913 288.116 417.469 284.747 419.063 279.91C419.874 277.451 421.027 274.491 423.275 273.012C427.585 270.177 432.629 270.986 434.486 264.985C435.266 262.463 434.999 259.604 435 257C435.003 250.97 436.886 241.091 432.566 236.228C429.111 232.339 423.656 233.837 421.043 228.941C419.841 226.689 418.214 223.628 418.621 221C419.365 216.195 423.062 213.346 421.485 208C420.549 204.825 418.184 202.342 415.96 200C411.677 195.489 406.589 189.062 400 188.229C395.56 187.668 393.031 190.728 389 191.382C385.562 191.94 381.45 189.517 378 189C377.952 186.975 377.976 184.95 377.347 182.996C374.28 173.462 363.983 175 356 175C351.329 175 345.981 174.267 342.109 177.434C338.88 180.074 339.08 183.549 336.988 186.725C335.669 188.727 333.175 189.883 330.999 190.704C325.405 192.812 321.576 187.851 316 188.152C309.42 188.507 304.235 195.644 300.015 200C297.99 202.091 295.801 204.225 294.742 207C293.671 209.808 293.862 213.203 294.835 216C295.535 218.015 296.825 219.796 296.881 222C296.974 225.625 294.619 229.408 294 233z"/>
<path style="fill:#ffdb2d; stroke:none;" d="M354 191C353.952 192.988 354.039 195.081 353.258 196.961C350.916 202.592 342.954 203.081 338 205.312C334.233 207.008 330.182 210.055 326 210.501C322.628 210.86 320.225 208.031 317.025 208.138C314.888 208.21 313.534 209.751 312 211L312 212C313.807 214.035 316.033 216.129 316.354 219.002C316.793 222.924 313.428 226.677 311.82 230C308.932 235.972 308.805 244.987 301.985 247.991C300.353 248.709 298.742 248.82 297 249L297 256C298.709 256.094 300.39 256.083 302.009 256.742C308.265 259.287 308.584 266.57 310.876 272C313.351 277.864 318.593 283.376 314.503 289.679L312 292C312.47 292.971 312.77 294.206 313.61 294.993C318.073 299.173 321.137 293.588 326 293.981C329.865 294.294 333.581 297.22 337 298.83C342.297 301.325 350.98 301.837 353.397 308.014C354.13 309.888 353.977 312.032 354 314L362 314C362.023 312.028 361.874 309.89 362.603 308.011C365.066 301.667 373.557 301.157 379 298.688C382.425 297.134 386.146 294.11 390 293.901C393.411 293.716 395.725 296.866 398.975 296.836C401.106 296.817 402.484 295.233 404 294L404 293C401.963 290.708 399.489 288.303 399.453 285C399.41 281.144 402.612 277.391 404.135 274C406.767 268.14 407.238 259.449 413.98 256.742C415.607 256.089 417.284 256.094 419 256L419 249C417.248 248.819 415.636 248.7 413.991 247.991C407.227 245.074 407.108 236.884 404.243 231C402.558 227.539 399.179 223.033 399.645 219.002C399.977 216.126 402.188 214.041 404 212L404 211C402.466 209.751 401.112 208.21 398.975 208.138C395.783 208.031 393.345 210.897 390 210.617C386.163 210.295 382.456 207.39 379 205.862C374.221 203.749 367.104 203.026 363.703 198.775C361.902 196.525 361.415 193.753 361 191L354 191z"/>
<path style="fill:#8797a3; stroke:none;" d="M89 204L69 224C61.5753 231.425 51.7856 239.308 54.9267 250.998C55.6087 253.537 56.7207 255.727 58 258L63.3295 250C70.1038 241.764 78.4633 234.537 86 227C91.1989 221.801 97.8623 216.728 101 210C96.4119 208.495 93.0193 206.701 89 204z"/>
<path style="fill:#97a5af; stroke:none;" d="M102 212C94.9038 215.309 89.4843 222.516 84 228L65.0934 247C62.7584 249.545 59.2303 253.204 59.5424 256.985C59.7595 259.615 61.9339 261.525 64.0193 262.852C69.6776 266.452 77.5593 265.31 83 261.867C91.6373 256.399 98.2135 247.401 105.09 240C107.349 237.568 111.538 234.633 111.698 231C111.791 228.868 110.266 226.773 109.279 225L102 212z"/>
<path style="fill:#010101; stroke:none;" d="M243 238C240.758 245.587 242.092 254.247 242.83 262L243.325 271C246.615 291.287 255.89 311.19 268.924 327C275.363 334.811 283.172 342.725 292 347.867C296.434 350.449 303.031 350.529 305.254 344.945C306.622 341.509 305.292 337.976 302.772 335.514L294 328.561C289.494 324.765 285.235 320.506 281.439 316C264.427 295.809 258 270.903 258 245C263.951 247.863 272.028 247.462 271.863 238.999C271.729 232.163 266.869 224.872 263.738 219.001C262.356 216.41 260.847 213.715 257.957 212.604C250.545 209.756 241.447 218.608 236.004 222.579C233.574 224.352 230.879 226.113 229.746 229.04C227.935 233.722 230.876 239.205 236.002 239.667C238.436 239.887 240.773 238.81 243 238M350 215.468C345.451 216.326 340.865 218.444 337 220.966C318.002 233.362 314.91 261.355 330.185 277.96C335.631 283.88 343.177 287.628 351 289.192C355.347 290.061 359.632 290.2 364 289.381C369.645 288.323 375.27 286.046 379.999 282.779C397.919 270.402 400.167 242.927 385.816 227.015C376.87 217.097 363.036 213.008 350 215.468z"/>
<path style="fill:#eff5f7; stroke:none;" d="M351 231.649C348.49 232.406 346.095 233.853 344.093 235.529C330.567 246.858 336.117 270.556 354 273.67C357.335 274.25 360.793 273.783 364 272.779C367.263 271.758 370.39 270.141 372.895 267.787C379.664 261.428 381.477 248.957 376.437 241.015C371.287 232.899 360.285 228.848 351 231.649z"/>
<path style="fill:#010101; stroke:none;" d="M351 352C353.772 346.238 353.184 338.353 345 338.213C342.226 338.165 339.505 339.369 337 340.428C332.288 342.42 327.376 344.687 323.005 347.352C320.772 348.713 318.481 350.412 317.647 353.015C316.752 355.805 318.123 358.617 319.468 361C321.992 365.469 325.042 369.836 328.04 373.999C329.875 376.546 331.935 379.291 335.004 380.393C339.707 382.082 345.191 379.096 345.668 374.001C345.881 371.731 344.94 369.964 344 368C355.243 368 366.877 368.493 378 366.675C397.099 363.553 415.951 354.522 431 342.55C439.536 335.759 448.012 327.534 453.521 318C456.493 312.855 455.897 305.956 448.996 304.478C444.09 303.426 441.004 307.63 438.35 311.004C432.851 317.994 427.063 324.641 420 330.112C399.578 345.93 376.509 352 351 352z"/>
<path style="fill:#013d51; stroke:none;" d="M17 403L17 406L473 406C473 414.092 473.015 421.971 472 430L31 430L31 431L387 431L459 431C468.558 431 481.005 433.113 488.895 426.467C495.947 420.526 495 411.286 495 403L17 403z"/>
<path style="fill:#014961; stroke:none;" d="M17 406C17 414.582 17.1702 424.002 26.0147 428.543C29.4059 430.284 33.3065 429.999 37 430L55 430L123 430L472 430C473.469 422.089 473 414.019 473 406L17 406z"/>
<path style="fill:#013749; stroke:none;" d="M143 490L359 490C354.315 479.965 347.982 470.576 342.424 461C340.099 456.993 337.782 450.516 333.671 448.028C330.748 446.258 326.267 447 323 447L298 447L206 447L179 447C175.535 447 170.456 446.105 167.379 448.028C163.884 450.212 162.002 455.573 159.989 459L150.011 476C147.362 480.51 144.481 484.965 143 490z"/>
<path style="fill:#032733; stroke:none;" d="M334 447C337.393 454.258 341.931 461.09 345.989 468C350.298 475.337 354.314 482.896 359 490L213 490L168 490C159.482 490 150.324 490.982 142 489C145.086 492.531 152.589 491 157 491L199 491L370 491C365.344 480.194 358.326 470.169 352.424 460C350.278 456.303 348.182 450.424 344.471 448.028C341.679 446.224 337.172 447 334 447z"/>
</svg>
